<?xml version="1.0" encoding="UTF-8"?>
<svg width="34px" height="54px" viewBox="0 0 34 54" version="1.1" xmlns="http://www.w3.org/2000/svg" xmlns:xlink="http://www.w3.org/1999/xlink">
    <!-- Generator: Sketch 60.1 (88133) - https://sketch.com -->
    <title>Combined Shape</title>
    <desc>Created with Sketch.</desc>
    <g id="Stylesheet" stroke="none" stroke-width="1" fill="none" fill-rule="evenodd">
        <g id="Overzichtspagina-desktop" transform="translate(-1107.000000, -36.000000)" fill="#F6861E">
            <path d="M1124.47141,36 C1131.37497,36 1136.97141,41.372583 1136.97141,48 C1136.97141,52.2656139 1134.65302,56.0113985 1131.15991,58.1394315 C1135.22608,62.1361274 1138.45995,69.9551579 1140.86152,81.5949969 C1140.87578,81.6641422 1140.88883,81.733534 1140.90064,81.8031397 C1141.45528,85.0700996 1139.25651,88.1681152 1135.98955,88.7227513 L1135.98955,88.7227513 L1135.36786,88.8269752 C1130.64191,89.6089917 1126.8431,90 1123.97141,90 C1120.98393,90 1116.99304,89.5768231 1111.99875,88.7304692 C1111.91382,88.7160759 1111.8292,88.6998551 1111.74497,88.6818181 C1108.50471,87.9879954 1106.44041,84.7987908 1107.13423,81.5585304 L1107.13423,81.5585304 L1107.25718,80.9904507 C1109.79432,69.3915139 1113.148,61.67483 1117.3182,57.8403989 C1114.0855,55.672651 1111.97141,52.0733364 1111.97141,48 C1111.97141,41.372583 1117.56785,36 1124.47141,36 Z" id="Combined-Shape"></path>
        </g>
    </g>
</svg>